<svg width="168" height="31" viewBox="0 0 168 31" fill="none" xmlns="http://www.w3.org/2000/svg">
<path d="M11.2 9.6L9.32 15.68H15.6L13.72 9.6C13.6133 9.36 13.4933 9.18667 13.36 9.08C13.2533 8.97333 13.12 8.92 12.96 8.92H11.96C11.8 8.92 11.6533 8.97333 11.52 9.08C11.4133 9.18667 11.3067 9.36 11.2 9.6ZM8.92 28.56C8.92 29.0667 8.8 29.44 8.56 29.68C8.34667 29.8933 7.98667 30 7.48 30H1.6C1.09333 30 0.72 29.8933 0.48 29.68C0.266667 29.44 0.16 29.0667 0.16 28.56V18C0.16 17.2 0.28 16.28 0.52 15.24C0.786667 14.2 1.18667 12.9867 1.72 11.6L5.2 2.52C5.36 2.06666 5.6 1.73333 5.92 1.52C6.26667 1.30667 6.70667 1.2 7.24 1.2H18C18.5067 1.2 18.92 1.30667 19.24 1.52C19.5867 1.73333 19.84 2.06666 20 2.52L23.48 11.6C24.0133 12.9867 24.4 14.2 24.64 15.24C24.9067 16.28 25.04 17.2 25.04 18V28.56C25.04 29.0667 24.92 29.44 24.68 29.68C24.4667 29.8933 24.1067 30 23.6 30H17.56C17.0267 30 16.6267 29.8933 16.36 29.68C16.12 29.44 16 29.0667 16 28.56V22.96H8.92V28.56ZM37.8188 30H31.6188C31.1121 30 30.7388 29.8933 30.4988 29.68C30.2854 29.44 30.1788 29.0667 30.1788 28.56V2.64C30.1788 2.13333 30.2854 1.77333 30.4988 1.56C30.7388 1.32 31.1121 1.2 31.6188 1.2H43.8588C47.4854 1.2 49.9654 1.92 51.2988 3.36C52.6321 4.8 53.2988 6.68 53.2988 9V14.12C53.2988 16.44 52.6321 18.32 51.2988 19.76C49.9654 21.2 47.4854 21.92 43.8588 21.92H39.2588V28.56C39.2588 29.0667 39.1388 29.44 38.8988 29.68C38.6854 29.8933 38.3254 30 37.8188 30ZM39.1788 8.68V14.72H42.7788C43.5521 14.72 44.0588 14.52 44.2988 14.12C44.5388 13.72 44.6588 13.2667 44.6588 12.76V10.64C44.6588 10.1333 44.5388 9.68 44.2988 9.28C44.0588 8.88 43.5521 8.68 42.7788 8.68H39.1788ZM82.0444 22.44C82.0444 23.6667 81.8577 24.7867 81.4844 25.8C81.1377 26.7867 80.4977 27.64 79.5644 28.36C78.6577 29.0533 77.391 29.6 75.7644 30C74.1644 30.4 72.1244 30.6 69.6444 30.6C67.1644 30.6 65.111 30.4 63.4844 30C61.8577 29.6 60.5777 29.0533 59.6444 28.36C58.7377 27.64 58.0977 26.7867 57.7244 25.8C57.3777 24.7867 57.2044 23.6667 57.2044 22.44V8.8C57.2044 7.57333 57.3777 6.46667 57.7244 5.48C58.0977 4.46667 58.7377 3.6 59.6444 2.88C60.5777 2.16 61.8577 1.6 63.4844 1.2C65.111 0.799999 67.1644 0.599999 69.6444 0.599999C72.1244 0.599999 74.1644 0.799999 75.7644 1.2C77.391 1.6 78.6577 2.16 79.5644 2.88C80.4977 3.6 81.1377 4.46667 81.4844 5.48C81.8577 6.46667 82.0444 7.57333 82.0444 8.8V22.44ZM66.2844 21C66.2844 21.5333 66.4844 21.9867 66.8844 22.36C67.2844 22.7067 68.2044 22.88 69.6444 22.88C71.0844 22.88 72.0044 22.7067 72.4044 22.36C72.8044 21.9867 73.0044 21.5333 73.0044 21V10.24C73.0044 9.73333 72.8044 9.30667 72.4044 8.96C72.0044 8.58667 71.0844 8.4 69.6444 8.4C68.2044 8.4 67.2844 8.58667 66.8844 8.96C66.4844 9.30667 66.2844 9.73333 66.2844 10.24V21ZM109.137 30H88.7766C88.2699 30 87.8966 29.8933 87.6566 29.68C87.4432 29.44 87.3366 29.0667 87.3366 28.56V2.64C87.3366 2.13333 87.4432 1.77333 87.6566 1.56C87.8966 1.32 88.2699 1.2 88.7766 1.2H94.9766C95.4832 1.2 95.8432 1.32 96.0566 1.56C96.2966 1.77333 96.4166 2.13333 96.4166 2.64V22.44H101.897V15.96C101.897 15.4533 102.003 15.0933 102.217 14.88C102.457 14.64 102.83 14.52 103.337 14.52H109.137C109.643 14.52 110.003 14.64 110.217 14.88C110.457 15.0933 110.577 15.4533 110.577 15.96V28.56C110.577 29.0667 110.457 29.44 110.217 29.68C110.003 29.8933 109.643 30 109.137 30ZM137.149 30H116.789C116.282 30 115.909 29.8933 115.669 29.68C115.456 29.44 115.349 29.0667 115.349 28.56V2.64C115.349 2.13333 115.456 1.77333 115.669 1.56C115.909 1.32 116.282 1.2 116.789 1.2H122.989C123.496 1.2 123.856 1.32 124.069 1.56C124.309 1.77333 124.429 2.13333 124.429 2.64V22.44H129.909V15.96C129.909 15.4533 130.016 15.0933 130.229 14.88C130.469 14.64 130.842 14.52 131.349 14.52H137.149C137.656 14.52 138.016 14.64 138.229 14.88C138.469 15.0933 138.589 15.4533 138.589 15.96V28.56C138.589 29.0667 138.469 29.44 138.229 29.68C138.016 29.8933 137.656 30 137.149 30ZM167.762 22.44C167.762 23.6667 167.575 24.7867 167.202 25.8C166.855 26.7867 166.215 27.64 165.282 28.36C164.375 29.0533 163.108 29.6 161.482 30C159.882 30.4 157.842 30.6 155.362 30.6C152.882 30.6 150.828 30.4 149.202 30C147.575 29.6 146.295 29.0533 145.362 28.36C144.455 27.64 143.815 26.7867 143.442 25.8C143.095 24.7867 142.922 23.6667 142.922 22.44V8.8C142.922 7.57333 143.095 6.46667 143.442 5.48C143.815 4.46667 144.455 3.6 145.362 2.88C146.295 2.16 147.575 1.6 149.202 1.2C150.828 0.799999 152.882 0.599999 155.362 0.599999C157.842 0.599999 159.882 0.799999 161.482 1.2C163.108 1.6 164.375 2.16 165.282 2.88C166.215 3.6 166.855 4.46667 167.202 5.48C167.575 6.46667 167.762 7.57333 167.762 8.8V22.44ZM152.002 21C152.002 21.5333 152.202 21.9867 152.602 22.36C153.002 22.7067 153.922 22.88 155.362 22.88C156.802 22.88 157.722 22.7067 158.122 22.36C158.522 21.9867 158.722 21.5333 158.722 21V10.24C158.722 9.73333 158.522 9.30667 158.122 8.96C157.722 8.58667 156.802 8.4 155.362 8.4C153.922 8.4 153.002 8.58667 152.602 8.96C152.202 9.30667 152.002 9.73333 152.002 10.24V21Z" fill="#5171A5"/>
</svg>
