<svg width="30" height="30" viewBox="0 0 30 30" fill="none" xmlns="http://www.w3.org/2000/svg">
<path d="M6.92534 13.8999C1.07534 14.3124 1.07534 22.8249 6.92534 23.2374H9.3254" stroke="#5171A5" stroke-width="1.5" stroke-miterlimit="10" stroke-linecap="round" stroke-linejoin="round"/>
<path d="M6.98754 13.8999C2.97504 2.73743 19.9 -1.72506 21.8375 9.99994C27.25 10.6874 29.4375 17.8999 25.3375 21.4874C24.0875 22.6249 22.475 23.2499 20.7875 23.2374H20.675" stroke="#5171A5" stroke-width="1.5" stroke-miterlimit="10" stroke-linecap="round" stroke-linejoin="round"/>
<path d="M21.25 20.6625C21.25 21.5875 21.05 22.4625 20.675 23.2375C20.575 23.4625 20.4625 23.675 20.3375 23.875C19.2625 25.6875 17.275 26.9125 15 26.9125C12.725 26.9125 10.7375 25.6875 9.66248 23.875C9.53748 23.675 9.42503 23.4625 9.32503 23.2375C8.95003 22.4625 8.75 21.5875 8.75 20.6625C8.75 17.2125 11.55 14.4125 15 14.4125C18.45 14.4125 21.25 17.2125 21.25 20.6625Z" stroke="#5171A5" stroke-width="1.5" stroke-miterlimit="10" stroke-linecap="round" stroke-linejoin="round"/>
<path d="M13.0505 20.6626L14.288 21.9001L16.9505 19.4376" stroke="#5171A5" stroke-width="1.5" stroke-linecap="round" stroke-linejoin="round"/>
</svg>
