<svg width="30" height="30" viewBox="0 0 30 30" fill="none" xmlns="http://www.w3.org/2000/svg">
<path d="M27.5 18.75C27.5 23.5875 23.5875 27.5 18.75 27.5L20.0625 25.3125" stroke="#5171A5" stroke-width="1.5" stroke-linecap="round" stroke-linejoin="round"/>
<path d="M2.5 11.25C2.5 6.4125 6.4125 2.5 11.25 2.5L9.9375 4.6875" stroke="#5171A5" stroke-width="1.5" stroke-linecap="round" stroke-linejoin="round"/>
<path d="M17.124 5.56244L22.099 8.43742L27.024 5.57495" stroke="#5171A5" stroke-width="1.5" stroke-linecap="round" stroke-linejoin="round"/>
<path d="M22.0996 13.5249V8.42493" stroke="#5171A5" stroke-width="1.5" stroke-linecap="round" stroke-linejoin="round"/>
<path d="M20.9245 2.7625L17.9245 4.42495C17.2495 4.79995 16.687 5.74994 16.687 6.52494V9.69998C16.687 10.475 17.237 11.425 17.9245 11.8L20.9245 13.4625C21.562 13.825 22.612 13.825 23.262 13.4625L26.262 11.8C26.937 11.425 27.4995 10.475 27.4995 9.69998V6.52494C27.4995 5.74994 26.9495 4.79995 26.262 4.42495L23.262 2.7625C22.6245 2.4125 21.5745 2.4125 20.9245 2.7625Z" stroke="#5171A5" stroke-width="1.5" stroke-linecap="round" stroke-linejoin="round"/>
<path d="M2.93701 19.3124L7.89951 22.1874L12.837 19.325" stroke="#5171A5" stroke-width="1.5" stroke-linecap="round" stroke-linejoin="round"/>
<path d="M7.90039 27.2749V22.1749" stroke="#5171A5" stroke-width="1.5" stroke-linecap="round" stroke-linejoin="round"/>
<path d="M6.7375 16.5125L3.73751 18.1749C3.06251 18.5499 2.5 19.4999 2.5 20.2749V23.45C2.5 24.225 3.05001 25.175 3.73751 25.55L6.7375 27.2125C7.375 27.575 8.42499 27.575 9.07499 27.2125L12.075 25.55C12.75 25.175 13.3125 24.225 13.3125 23.45V20.2749C13.3125 19.4999 12.7625 18.5499 12.075 18.1749L9.07499 16.5125C8.42499 16.1625 7.375 16.1625 6.7375 16.5125Z" stroke="#5171A5" stroke-width="1.5" stroke-linecap="round" stroke-linejoin="round"/>
</svg>
